<?xml version="1.0" encoding="UTF-8"?>
<svg id="Layer_1" data-name="Layer 1" xmlns="http://www.w3.org/2000/svg" viewBox="0 0 1000 1000">
  <path d="m706.9,324.83v40.66c-5.01,9.3-13.24,22.31-21.15,21.22-13.69-1.88-13.55-44.24-27-46.29-14.71-2.24-25.17,46.9-46.29,47.25-19.71.34-27.76-42.19-46.28-41.46-21.01.82-28.25,56.18-46.29,55.93-17.94-.26-23.12-55.25-44.35-56.9-19.58-1.51-29.48,44.11-52.08,43.4-20.13-.63-24.65-37.24-46.67-38.75-21.59-1.48-32.24,32.73-53.61,31.03-14.08-1.12-24.19-17.14-30.08-28.93v-27.16c0-7.87,6.38-14.25,14.25-14.25h385.3c7.87,0,14.25,6.38,14.25,14.25Z" fill="#eba8a7" stroke="#473c5d" stroke-miterlimit="10" stroke-width="10"/>
  <path d="m706.9,365.49v74.4h-413.8v-87.9c5.89,11.79,16,27.81,30.08,28.93,21.37,1.7,32.02-32.51,53.61-31.03,22.02,1.51,26.54,38.12,46.67,38.75,22.6.71,32.5-44.91,52.08-43.4,21.23,1.65,26.41,56.64,44.35,56.9,18.04.25,25.28-55.11,46.29-55.93,18.52-.73,26.57,41.8,46.28,41.46,21.12-.35,31.58-49.49,46.29-47.25,13.45,2.05,13.31,44.41,27,46.29,7.91,1.09,16.14-11.92,21.15-21.22Z" fill="#dd9f6d" stroke="#473c5d" stroke-miterlimit="10" stroke-width="10"/>
  <path d="m806.71,464.6c1.53,21.2-15.63,36.85-18.92,39.75-14.97,47.38-27.77,57.38-36.79,57.54-17.37.31-24.3-35.79-45-36.32-21.35-.55-27.38,37.54-52.71,40.17-22.13,2.31-26.96-25.75-53.82-30.7-39.64-7.3-59.65,48.49-100.47,43.56-33.47-4.04-37.09-42.73-71.76-43.72-27.92-.79-33.79,24.16-64.53,23.15-29.66-.97-36.15-24.62-61.71-21.86-26.66,2.88-34.18,30.39-51.43,28.29-10.3-1.25-24.09-13.05-36.46-64.64-1.89-2.27-18.09-22.32-11.11-43.36,1.09-3.28,3.07-7.56,6.86-12,1.23-.97,2.94-2.1,5.14-3,3.88-1.59,7.38-1.68,9.46-1.57h553.08c1.76-.36,13.35-2.51,22.03,5,7.17,6.2,7.81,15.06,8.14,19.71Z" fill="#eba8a7" stroke="#473c5d" stroke-miterlimit="10" stroke-width="10"/>
  <path d="m787.79,642.71v48.91H212.21v-48.91c10.58,15,28.22,24.82,48.19,24.82s37.78-9.92,48.36-25.04c10.57,15.12,28.29,25.04,48.35,25.04,18.66,0,35.29-8.58,46.04-21.95,10.74,13.37,27.37,21.95,46.04,21.95,20.06,0,37.78-9.92,48.35-25.05,10.56,15.13,28.28,25.05,48.35,25.05s37.94-10.01,48.49-25.26c10.57,15.25,28.35,25.26,48.51,25.26s37.78-9.92,48.35-25.05c10.58,15.13,28.29,25.05,48.36,25.05s37.61-9.82,48.19-24.82Z" fill="#d78869" stroke="#473c5d" stroke-miterlimit="10" stroke-width="10"/>
  <path d="m785.61,505.77c5.18.61,7.32,34.67,2.18,136.94-10.58,15-28.22,24.82-48.19,24.82s-37.78-9.92-48.36-25.05c-10.57,15.13-28.28,25.05-48.35,25.05s-37.94-10.01-48.51-25.26c-10.55,15.25-28.34,25.26-48.49,25.26s-37.79-9.92-48.35-25.05c-10.57,15.13-28.29,25.05-48.35,25.05-18.67,0-35.3-8.58-46.04-21.95-10.75,13.37-27.38,21.95-46.04,21.95-20.06,0-37.78-9.92-48.35-25.04-10.58,15.12-28.3,25.04-48.36,25.04s-37.61-9.82-48.19-24.82c-2.81-111.5-.6-147.37,3.5-147.68,5.57-.42,9.57,64.93,33.86,69.43,16.51,3.06,24.21-25.35,51.43-28.29,25.56-2.76,32.05,20.89,61.71,21.86,30.74,1.01,36.61-23.94,64.53-23.15,34.67.99,38.29,39.68,71.76,43.72,40.82,4.93,60.83-50.86,100.47-43.56,26.86,4.95,31.69,33.01,53.82,30.7,25.33-2.63,31.36-40.72,52.71-40.17,20.96.54,28.27,37.6,45,36.32,20.19-1.55,27.94-56.91,34.61-56.12Z" fill="#dd9f6d" stroke="#473c5d" stroke-miterlimit="10" stroke-width="10"/>
  <rect x="128.45" y="691.62" width="743.1" height="15.52" rx="7.76" ry="7.76" fill="#473c5d"/>
  <line x1="305.11" y1="839.92" x2="304.81" y2="839.92" fill="none" stroke="#231f20" stroke-miterlimit="10" stroke-width="5"/>
  <line x1="490.91" y1="839.92" x2="490.6" y2="839.92" fill="none" stroke="#231f20" stroke-miterlimit="10" stroke-width="5"/>
  <line x1="681.55" y1="839.92" x2="681.24" y2="839.92" fill="none" stroke="#231f20" stroke-miterlimit="10" stroke-width="5"/>
  <line x1="586.37" y1="839.92" x2="585.78" y2="839.92" fill="none" stroke="#231f20" stroke-miterlimit="10" stroke-width="5"/>
  <polygon points="231.3 610.59 212.21 629.68 212.21 591.5 231.3 610.59" fill="#754c29" stroke="#473c5d" stroke-miterlimit="10" stroke-width="10"/>
  <rect x="390.13" y="597.09" width="27" height="27" transform="translate(-313.53 464.25) rotate(-45)" fill="#754c29" stroke="#473c5d" stroke-miterlimit="10" stroke-width="10"/>
  <rect x="581.06" y="597.09" width="27" height="27" transform="translate(-257.61 599.26) rotate(-45)" fill="#754c29" stroke="#473c5d" stroke-miterlimit="10" stroke-width="10"/>
  <polyline points="790.74 629.68 771.65 610.59 790.74 591.5" fill="#754c29" stroke="#473c5d" stroke-miterlimit="10" stroke-width="10"/>
  <path d="m435.69,213.46c0-7.3-.06-12.93-.19-16.9-.13-3.96-.32-6.8-.57-8.5-.25-1.7-.54-2.67-.85-2.93-.32-.25-.73-.38-1.23-.38-2.01,0-3.4-1.04-4.15-3.12-.76-2.08-.69-4.34.19-6.8.88-2.45,2.61-4.72,5.19-6.8,2.58-2.08,6.2-3.12,10.86-3.12,6.92,0,12.49.47,16.71,1.42,4.22.94,7.39,3.24,9.53,6.89,2.14,3.65,3.37,8.43,3.68,14.35.31,5.92.47,12.53.47,19.82v75.71c0,5.04-1.01,8.68-3.02,10.95-2.02,2.27-6.11,3.4-12.27,3.4-8.68,0-14.92-1.89-18.69-5.66s-5.66-10.19-5.66-19.26v-59.09Z" fill="#eba8a7" stroke="#473c5d" stroke-miterlimit="10" stroke-width="10"/>
  <path d="m538.89,268.68c3.27,0,5.41-2.08,6.42-6.23,1.01-4.15,1.63-10.76,1.89-19.82-5.66,2.64-11.61,3.84-17.84,3.59-6.23-.25-11.93-1.89-17.09-4.91-5.16-3.02-9.44-7.46-12.84-13.31-3.4-5.85-5.1-13.06-5.1-21.62-.25-6.42.63-12.33,2.64-17.75,2.01-5.41,4.97-10.04,8.87-13.88,3.9-3.84,8.65-6.83,14.25-8.97,5.6-2.14,11.86-3.21,18.79-3.21,7.68,0,14.5,1.17,20.48,3.49,5.98,2.33,11.04,6.2,15.2,11.61,4.15,5.41,7.3,12.46,9.44,21.15,2.14,8.68,3.21,19.45,3.21,32.28s-1.07,23.07-3.21,31.81c-2.14,8.75-5.29,15.86-9.44,21.33s-9.22,9.44-15.2,11.89c-5.98,2.45-12.81,3.68-20.48,3.68-5.66,0-11.04-.57-16.14-1.7s-9.63-2.93-13.59-5.38c-3.96-2.45-7.17-5.6-9.63-9.44-2.45-3.84-3.81-8.53-4.06-14.07-.25-4.03.53-7.42,2.36-10.19,1.82-2.77,4.18-4.94,7.08-6.51,2.89-1.57,6.07-2.61,9.54-3.11,3.46-.5,6.64-.44,9.53.19,2.89.63,5.25,1.73,7.08,3.3,1.82,1.58,2.61,3.62,2.36,6.14-.75,6.42,1.07,9.63,5.48,9.63Zm.38-75.14c-1.64,0-3.08,1.01-4.34,3.02-1.26,2.01-2.17,4.5-2.74,7.46-.57,2.96-.76,6.07-.57,9.35.19,3.27.85,6.17,1.98,8.68,1.13,2.52,2.83,4.34,5.1,5.48,2.27,1.13,5.16,1.01,8.69-.38,0-10.32-.47-18.5-1.42-24.54-.94-6.04-3.18-9.06-6.7-9.06Z" fill="#eba8a7" stroke="#473c5d" stroke-miterlimit="10" stroke-width="10"/>
  <g>
    <rect x="730.24" y="360.5" width="29.76" height="78.03" rx="5.36" ry="5.36" fill="#f3ffff" stroke="#473c5d" stroke-miterlimit="10" stroke-width="10"/>
    <path d="m745.11,345.04c-6.72,0-11.77-6.11-13.21-11.32-1.38-5.01.66-9.57,4.86-18.45,3.02-6.39,6.16-11.32,8.47-14.63,2.31,3.47,5.47,8.63,8.56,15.23,3.8,8.12,5.71,12.26,4.79,16.66-1.17,5.63-6.34,12.52-13.48,12.52Z" fill="#f1d536" stroke="#473c5d" stroke-miterlimit="10" stroke-width="7"/>
  </g>
  <g>
    <rect x="236.53" y="359.7" width="29.76" height="78.03" rx="5.36" ry="5.36" fill="#f3ffff" stroke="#473c5d" stroke-miterlimit="10" stroke-width="10"/>
    <path d="m251.39,344.24c-6.72,0-11.77-6.11-13.21-11.32-1.38-5.01.66-9.57,4.86-18.45,3.02-6.39,6.16-11.32,8.47-14.63,2.31,3.47,5.47,8.63,8.56,15.23,3.8,8.12,5.71,12.26,4.79,16.66-1.17,5.63-6.34,12.52-13.48,12.52Z" fill="#f1d536" stroke="#473c5d" stroke-miterlimit="10" stroke-width="7"/>
  </g>
  <g>
    <rect x="347.1" y="232.55" width="29.76" height="78.03" rx="5.36" ry="5.36" fill="#f3ffff" stroke="#473c5d" stroke-miterlimit="10" stroke-width="10"/>
    <path d="m361.96,217.09c-6.72,0-11.77-6.11-13.21-11.32-1.38-5.01.66-9.57,4.86-18.45,3.02-6.39,6.16-11.32,8.47-14.63,2.31,3.47,5.47,8.63,8.56,15.23,3.8,8.12,5.71,12.26,4.79,16.66-1.17,5.63-6.34,12.52-13.48,12.52Z" fill="#f1d536" stroke="#473c5d" stroke-miterlimit="10" stroke-width="7"/>
  </g>
  <g>
    <rect x="621.6" y="232.55" width="29.76" height="78.03" rx="5.36" ry="5.36" fill="#f3ffff" stroke="#473c5d" stroke-miterlimit="10" stroke-width="10"/>
    <path d="m636.46,217.09c-6.72,0-11.77-6.11-13.21-11.32-1.38-5.01.66-9.57,4.86-18.45,3.02-6.39,6.16-11.32,8.47-14.63,2.31,3.47,5.47,8.63,8.56,15.23,3.8,8.12,5.71,12.26,4.79,16.66-1.17,5.63-6.34,12.52-13.48,12.52Z" fill="#f1d536" stroke="#473c5d" stroke-miterlimit="10" stroke-width="7"/>
  </g>
  <g>
    <rect x="488.66" y="360.5" width="29.76" height="78.03" rx="5.36" ry="5.36" fill="#f3ffff" stroke="#473c5d" stroke-miterlimit="10" stroke-width="10"/>
    <path d="m503.52,345.04c-6.72,0-11.77-6.11-13.21-11.32-1.38-5.01.66-9.57,4.86-18.45,3.02-6.39,6.16-11.32,8.47-14.63,2.31,3.47,5.47,8.63,8.56,15.23,3.8,8.12,5.71,12.26,4.79,16.66-1.17,5.63-6.34,12.52-13.48,12.52Z" fill="#f1d536" stroke="#473c5d" stroke-miterlimit="10" stroke-width="7"/>
  </g>
</svg>