<?xml version="1.0" encoding="UTF-8"?>
<svg id="Layer_3" data-name="Layer 3" xmlns="http://www.w3.org/2000/svg" viewBox="0 0 1000 1000">
  <g>
    <path d="m734.41,463.86v392.21c0,5.21-4.22,9.43-9.42,9.43h-461.48c-5.2,0-9.42-4.22-9.42-9.43v-392.21h480.32Z" style="fill: #f53b40; stroke: #473c5d; stroke-miterlimit: 10; stroke-width: 10px;"/>
    <rect x="435.68" y="463.86" width="117.14" height="401.64" style="fill: #f5c838; stroke: #473c5d; stroke-miterlimit: 10; stroke-width: 10px;"/>
  </g>
  <g>
    <g>
      <path d="m243.43,368.78h192.25v95.08h-192.25c-5.43,0-9.84-4.4-9.84-9.83v-75.41c0-5.44,4.41-9.84,9.84-9.84Z" style="fill: #f53b40; stroke: #473c5d; stroke-miterlimit: 10; stroke-width: 10px;"/>
      <path d="m754.91,378.62v75.41c0,5.43-4.41,9.83-9.84,9.83h-192.25v-95.08h192.25c5.43,0,9.84,4.4,9.84,9.84Z" style="fill: #f53b40; stroke: #473c5d; stroke-miterlimit: 10; stroke-width: 10px;"/>
      <rect x="421.54" y="368.78" width="145.43" height="95.08" style="fill: #f5c838; stroke: #473c5d; stroke-miterlimit: 10; stroke-width: 10px;"/>
    </g>
    <g>
      <path d="m622.95,224.78c-43.74-21.85-91.56,27.16-96.42,32.14-40.33,41.33-33.99,98.37-32.86,107.23,15.28-8.67,37.72-19.45,66.28-26.23,53.08-12.59,78.46.2,92.58-16.71,17.91-21.46,7.11-78.11-29.58-96.43Zm6.28,74.86c-1.73.2-3.99.34-6.42.44-3.82.17-6.64.24-7.39.25-3.11.05-22.21.53-40.6,3.17-11.44,1.64-17.16,2.46-22.02,4.26-22.81,8.43-31.6,27.78-33.99,26.31-2.85-1.75,7.19-30.64,29.9-55.5,0,0,25.82-28.37,50.42-28.37,3.64,0,6.81.73,9.97,2.31,8.26,4.13,15.28,13.81,18.78,25.91,2.87,9.92,2.27,17.57,1.35,21.22Z" style="fill: #f5c838; stroke: #473c5d; stroke-miterlimit: 10; stroke-width: 10px;"/>
      <path d="m629.23,299.64c-1.73.2-3.99.34-6.42.44-3.82.17-6.64.24-7.39.25-3.11.05-22.21.53-40.6,3.17-11.44,1.64-17.16,2.46-22.02,4.26-22.81,8.43-31.6,27.78-33.99,26.31-2.85-1.75,7.19-30.64,29.9-55.5,0,0,25.82-28.37,50.42-28.37,3.64,0,6.81.73,9.97,2.31,8.26,4.13,15.28,13.81,18.78,25.91,2.87,9.92,2.27,17.57,1.35,21.22Z" style="fill: #fff; stroke: #473c5d; stroke-miterlimit: 10; stroke-width: 10px;"/>
      <path d="m629.23,299.64c-1.73.2-3.99.34-6.42.44-3.82.17-6.64.24-7.39.25-3.11.05-22.21.53-40.6,3.17-11.44,1.64-17.16,2.46-22.02,4.26-22.81,8.43-31.6,27.78-33.99,26.31-2.85-1.75,7.19-30.64,29.9-55.5,0,0,25.82-28.37,50.42-28.37,3.64,0,6.81.73,9.97,2.31,8.26,4.13,15.28,13.81,18.78,25.91,2.87,9.92,2.27,17.57,1.35,21.22Z" style="fill: #fff; stroke: #473c5d; stroke-miterlimit: 10; stroke-width: 10px;"/>
    </g>
    <g>
      <path d="m451.66,256.92c-6.51-6.47-53.7-53.48-96.43-32.14-36.68,18.32-47.48,74.97-29.57,96.43,14.18,17,39.56,4.5,92.57,16.71,29.97,6.91,53.56,18.23,69.72,27.47.89-9.82,5.15-67.21-36.29-108.47Zm7.71,77.15c-2.39,1.47-11.18-17.88-33.98-26.31-4.87-1.8-10.59-2.62-22.03-4.26-18.39-2.64-37.49-3.12-40.6-3.17-.75,0-3.57-.08-7.39-.25-2.43-.1-4.69-.24-6.42-.44-.92-3.65-1.52-11.3,1.35-21.22,3.51-12.1,10.52-21.78,18.78-25.91,3.16-1.58,6.33-2.31,9.97-2.31,24.6,0,50.42,28.37,50.42,28.37,22.71,24.86,32.75,53.75,29.9,55.5Z" style="fill: #f5c838; stroke: #473c5d; stroke-miterlimit: 10; stroke-width: 10px;"/>
      <path d="m459.37,334.07c-2.39,1.47-11.18-17.88-33.98-26.31-4.87-1.8-10.59-2.62-22.03-4.26-18.39-2.64-37.49-3.12-40.6-3.17-.75,0-3.57-.08-7.39-.25-2.43-.1-4.69-.24-6.42-.44-.92-3.65-1.52-11.3,1.35-21.22,3.51-12.1,10.52-21.78,18.78-25.91,3.16-1.58,6.33-2.31,9.97-2.31,24.6,0,50.42,28.37,50.42,28.37,22.71,24.86,32.75,53.75,29.9,55.5Z" style="fill: #fff; stroke: #473c5d; stroke-miterlimit: 10; stroke-width: 10px;"/>
      <path d="m459.37,334.07c-2.39,1.47-11.18-17.88-33.98-26.31-4.87-1.8-10.59-2.62-22.03-4.26-18.39-2.64-37.49-3.12-40.6-3.17-.75,0-3.57-.08-7.39-.25-2.43-.1-4.69-.24-6.42-.44-.92-3.65-1.52-11.3,1.35-21.22,3.51-12.1,10.52-21.78,18.78-25.91,3.16-1.58,6.33-2.31,9.97-2.31,24.6,0,50.42,28.37,50.42,28.37,22.71,24.86,32.75,53.75,29.9,55.5Z" style="fill: #fff; stroke: #473c5d; stroke-miterlimit: 10; stroke-width: 10px;"/>
    </g>
    <path d="m488.51,327.98c2.49-26.45,9.69-67.19,32.18-111.43,31.19-61.36,75.38-97.19,99.43-114,1.68,11.75,3.36,23.5,5.04,35.25,12.46,4.54,24.93,9.07,37.39,13.61-21.96,6-63.32,20.5-102.43,56.57-48.94,45.14-65.83,97.76-71.6,120Z" style="fill: #f5c838; stroke: #473c5d; stroke-miterlimit: 10; stroke-width: 10px;"/>
    <path d="m490.29,350.96c3.24-26.37,4.95-67.71-7.53-115.74-17.3-66.62-52.79-111.09-72.67-132.67-2.24,12.39-4.49,24.79-6.73,37.18-15.06.48-30.12.96-45.19,1.44,20.16,10.57,57.45,33.6,87.91,77.22,38.12,54.59,43.33,109.6,44.2,132.56Z" style="fill: #f5c838; stroke: #473c5d; stroke-miterlimit: 10; stroke-width: 10px;"/>
  </g>
</svg>