<?xml version="1.0" encoding="UTF-8"?>
<svg id="Layer_1" data-name="Layer 1" xmlns="http://www.w3.org/2000/svg" viewBox="0 0 1000 1000">
  <g>
    <path d="m9.93,540.7c2.53-5.65,6.57-10.15,11.44-13.3,4.88-3.19,10.57-5.01,16.43-5.22l2.15-4.99c8.24,3.59,16.56,6.95,24.88,10.37l-2.07,5.03c3.97,4.31,6.66,9.67,7.8,15.33,1.14,5.65.72,11.68-1.62,17.42-1.61,3.97-4,7.44-6.94,10.28-2.93,2.82-6.42,5.02-10.24,6.51-3.81,1.49-7.95,2.27-12.18,2.25-4.23,0-8.54-.82-12.66-2.6-8.25-3.52-14.3-9.85-17.36-17.27-3.05-7.48-3.13-15.98.37-23.79Z" style="fill: #f0d109; stroke: #473c5d; stroke-miterlimit: 10; stroke-width: 3px;"/>
    <path d="m39.95,517.19l6.43-15.02c.31-.74,1.16-1.07,1.9-.76l5.46,2.35,5.49,2.26,11,4.53c.74.31,1.1,1.15.79,1.89l-6.2,15.12c-8.32-3.42-16.64-6.78-24.88-10.37Z" style="fill: #d1d3d4; stroke: #473c5d; stroke-miterlimit: 10; stroke-width: 3px;"/>
    <path d="m58.32,499.11l6.48,2.67c3.07,1.27,4.54,4.8,3.28,7.88h0c-5.89-2.45-11.8-4.81-17.65-7.33h0c1.3-3.07,4.82-4.47,7.9-3.22Z" style="fill: #d1d3d4; stroke: #473c5d; stroke-miterlimit: 10; stroke-width: 3px;"/>
    <g>
      <line x1="64.83" y1="527.56" x2="64.82" y2="527.56" style="fill: none; stroke: #473c5d; stroke-miterlimit: 10; stroke-width: 3px;"/>
      <path d="m66.6,523.26c-8.3-3.42-16.6-6.76-24.81-10.35" style="fill: none; stroke: #473c5d; stroke-miterlimit: 10; stroke-width: 3px;"/>
      <path d="m68.36,518.96c-8.27-3.43-16.56-6.74-24.75-10.32" style="fill: none; stroke: #473c5d; stroke-miterlimit: 10; stroke-width: 3px;"/>
      <path d="m70.13,514.65c-8.25-3.43-16.51-6.72-24.68-10.29" style="fill: none; stroke: #473c5d; stroke-miterlimit: 10; stroke-width: 3px;"/>
    </g>
    <g>
      <path d="m23.81,574.33c.35-.79,1.3-1.15,2.13-.8.83.35,1.23,1.28.88,2.08-.34.79-1.3,1.15-2.13.8-.83-.35-1.23-1.28-.88-2.08Z" style="fill: #fff;"/>
      <path d="m21.5,571.66c-1.34-1.28-7.99-7.93-7.75-17.85.14-5.83,2.55-10.09,3.88-12.1" style="fill: none; stroke: #fff; stroke-linecap: round; stroke-miterlimit: 10; stroke-width: 3px;"/>
    </g>
    <g>
      <path d="m46.98,520.2c2.77,1.2,5.56,2.3,8.35,3.46l-2.92,6.96c-.96,2.28-3.62,3.35-5.94,2.4h0c-2.32-.97-3.4-3.62-2.44-5.89l2.95-6.94Z" style="fill: none; stroke: #473c5d; stroke-miterlimit: 10; stroke-width: 3px;"/>
      <path d="m46.47,533.02l-3.34,7.87-3.35,7.86c-1.87.71-3.83.4-4.8-.72-1.47-1.7-.31-4.82,1.41-5.78,2.54-1.42,7.26,1.33,9.06,4.9.27.55,1.11,2.28.78,4.26-.62,3.82-5.37,7.15-11.77,7.56" style="fill: none; stroke: #473c5d; stroke-linecap: round; stroke-miterlimit: 10; stroke-width: 3px;"/>
    </g>
  </g>
  <g>
    <path d="m140.44,582.72c.32-6.19,2.49-11.83,5.92-16.47,3.44-4.66,8.12-8.22,13.56-10.51l.25-5.43,26.94,1.18-.17,5.44c10.46,5.26,17.6,16.14,17.41,28.53-.14,8.57-3.87,16.25-9.84,21.71-2.99,2.73-6.54,4.9-10.47,6.35-3.93,1.45-8.24,2.19-12.71,1.93-8.94-.46-16.94-4.35-22.54-10.24-5.6-5.92-8.79-13.96-8.35-22.5Z" style="fill: #f0d109; stroke: #473c5d; stroke-miterlimit: 10; stroke-width: 3px;"/>
    <path d="m160.17,550.32l.79-16.31c.04-.8.72-1.42,1.52-1.38l23.78,1.01c.8.03,1.42.71,1.39,1.51l-.55,16.35-26.94-1.18Z" style="fill: #d1d3d4; stroke: #473c5d; stroke-miterlimit: 10; stroke-width: 3px;"/>
    <path d="m171.15,526.96l7.01.29c3.32.14,5.91,2.95,5.78,6.29l-19.11-.81c.16-3.33,2.99-5.91,6.32-5.77Z" style="fill: #d1d3d4; stroke: #473c5d; stroke-miterlimit: 10; stroke-width: 3px;"/>
    <g>
      <line x1="187.11" y1="551.5" x2="187.11" y2="551.5" style="fill: none; stroke: #473c5d; stroke-miterlimit: 10; stroke-width: 3px;"/>
      <line x1="187.27" y1="546.84" x2="160.4" y2="545.68" style="fill: none; stroke: #473c5d; stroke-miterlimit: 10; stroke-width: 3px;"/>
      <line x1="187.43" y1="542.19" x2="160.62" y2="541.03" style="fill: none; stroke: #473c5d; stroke-miterlimit: 10; stroke-width: 3px;"/>
      <line x1="187.59" y1="537.53" x2="160.85" y2="536.39" style="fill: none; stroke: #473c5d; stroke-miterlimit: 10; stroke-width: 3px;"/>
    </g>
    <g>
      <path d="m165.69,609.54c.03-.87.78-1.53,1.69-1.49.9.04,1.61.78,1.58,1.65-.03.87-.78,1.53-1.69,1.49-.9-.04-1.61-.78-1.58-1.65Z" style="fill: #fff;"/>
      <path d="m162.56,607.82c-1.71-.74-10.37-4.7-13.79-14.07-2-5.55-1.28-10.4-.77-12.73" style="fill: none; stroke: #fff; stroke-linecap: round; stroke-miterlimit: 10; stroke-width: 3px;"/>
    </g>
    <g>
      <path d="m167.84,550.66l9.04.4-.28,7.54c-.09,2.47-2.2,4.38-4.71,4.27-2.51-.11-4.47-2.2-4.36-4.67l.32-7.54Z" style="fill: none; stroke: #473c5d; stroke-miterlimit: 10; stroke-width: 3px;"/>
      <path d="m171.88,562.86l-.32,8.55-.31,8.55c-1.49,1.32-3.43,1.71-4.74,1-1.98-1.08-2.03-4.41-.76-5.91,1.86-2.21,7.26-1.31,10.21,1.48.45.43,1.85,1.77,2.26,3.76.79,3.84-2.44,8.49-8.23,11.13" style="fill: none; stroke: #473c5d; stroke-linecap: round; stroke-miterlimit: 10; stroke-width: 3px;"/>
    </g>
  </g>
  <g>
    <path d="m269.05,596.35c3.34-11.95,13.27-20.16,24.82-22.44l1.38-5.26c8.7,2.19,17.41,4.5,26.16,6.61l-1.3,5.29c9.14,7.26,13.91,19.33,11.02,31.37-2.01,8.33-7.39,15.08-14.51,19.23-3.56,2.11-7.53,3.44-11.71,4.01-4.18.57-8.56.37-12.91-.73-8.69-2.21-15.64-7.49-19.76-14.49-4.14-6.94-5.49-15.34-3.19-23.58Z" style="fill: #f0d109; stroke: #473c5d; stroke-miterlimit: 10; stroke-width: 3px;"/>
    <path d="m295.25,568.64l4.13-15.82c.2-.77.99-1.24,1.77-1.04l11.53,2.95c3.85.97,7.69,2.01,11.56,2.88.78.18,1.26.96,1.07,1.74l-3.89,15.9c-8.75-2.11-17.46-4.41-26.16-6.61Z" style="fill: #d1d3d4; stroke: #473c5d; stroke-miterlimit: 10; stroke-width: 3px;"/>
    <path d="m310.75,548.01l6.8,1.75c3.22.85,5.21,4.09,4.42,7.32h0c-6.2-1.53-12.38-3.15-18.56-4.72.83-3.23,4.11-5.17,7.34-4.35Z" style="fill: #d1d3d4; stroke: #473c5d; stroke-miterlimit: 10; stroke-width: 3px;"/>
    <g>
      <line x1="321.42" y1="575.25" x2="321.42" y2="575.25" style="fill: none; stroke: #473c5d; stroke-miterlimit: 10; stroke-width: 3px;"/>
      <path d="m322.53,570.72c-4.37-.98-8.72-2.18-13.07-3.26l-13.03-3.33" style="fill: none; stroke: #473c5d; stroke-miterlimit: 10; stroke-width: 3px;"/>
      <path d="m323.64,566.2c-4.36-.98-8.69-2.15-13.03-3.24l-13-3.32" style="fill: none; stroke: #473c5d; stroke-miterlimit: 10; stroke-width: 3px;"/>
      <path d="m324.74,561.68c-4.35-.98-8.67-2.12-13-3.23l-12.96-3.32" style="fill: none; stroke: #473c5d; stroke-miterlimit: 10; stroke-width: 3px;"/>
    </g>
    <g>
      <path d="m287.8,627.56c.22-.84,1.12-1.34,1.99-1.12s1.41,1.08,1.18,1.91c-.22.84-1.11,1.34-1.99,1.12-.88-.22-1.41-1.08-1.18-1.91Z" style="fill: #fff;"/>
      <path d="m285.12,625.27c-.76-.53-3.03-2.18-5.27-4.93-2.24-2.73-4.43-6.67-5.06-11.59-.73-5.8,1.02-10.37,2.03-12.54" style="fill: none; stroke: #fff; stroke-linecap: round; stroke-miterlimit: 10; stroke-width: 3px;"/>
    </g>
    <g>
      <path d="m302.67,570.53l8.77,2.23-1.85,7.31c-.61,2.39-3.08,3.83-5.52,3.21-2.44-.62-3.91-3.06-3.29-5.45l1.89-7.31Z" style="fill: none; stroke: #473c5d; stroke-miterlimit: 10; stroke-width: 3px;"/>
      <path d="m304.08,583.29l-2.13,8.28-2.15,8.28c-1.75.99-3.74.98-4.86.03-1.71-1.45-1.03-4.71.53-5.92,2.3-1.79,7.39.18,9.7,3.49.35.51,1.43,2.1,1.41,4.12-.05,3.9-4.24,7.78-10.52,9.2" style="fill: none; stroke: #473c5d; stroke-linecap: round; stroke-miterlimit: 10; stroke-width: 3px;"/>
    </g>
  </g>
  <g>
    <path d="m404.2,617.95c-.97-12.34,5.63-23.53,15.8-29.3l-.46-5.42,6.73-.51c2.24-.16,4.48-.42,6.73-.62l13.43-1.3.54,5.41c11.06,3.92,19.58,13.91,21.02,26.12.98,8.47-1.71,16.7-6.93,22.82-5.22,6.15-12.97,10.36-21.92,11.16-4.47.4-8.82-.08-12.83-1.29-4.02-1.24-7.7-3.3-10.87-5.88-6.33-5.19-10.55-12.65-11.22-21.18Z" style="fill: #f0d109; stroke: #473c5d; stroke-miterlimit: 10; stroke-width: 3px;"/>
    <path d="m419.54,583.23l-1.36-16.3c-.07-.8.53-1.49,1.33-1.55,7.92-.53,15.83-1.36,23.73-2.14.8-.08,1.51.5,1.58,1.3l1.61,16.27-13.43,1.3c-2.24.2-4.48.46-6.73.62l-6.73.51Z" style="fill: #d1d3d4; stroke: #473c5d; stroke-miterlimit: 10; stroke-width: 3px;"/>
    <path d="m427.34,558.72c2.33-.18,4.66-.45,6.99-.66,3.31-.33,6.25,2.1,6.57,5.41-6.35.61-12.71,1.31-19.07,1.73-.28-3.32,2.19-6.23,5.51-6.48Z" style="fill: #d1d3d4; stroke: #473c5d; stroke-miterlimit: 10; stroke-width: 3px;"/>
    <g>
      <line x1="446.42" y1="580.8" x2="446.42" y2="580.8" style="fill: none; stroke: #473c5d; stroke-miterlimit: 10; stroke-width: 3px;"/>
      <path d="m445.96,576.17c-8.92.84-17.87,1.83-26.82,2.42" style="fill: none; stroke: #473c5d; stroke-miterlimit: 10; stroke-width: 3px;"/>
      <path d="m445.51,571.54c-8.9.85-17.82,1.82-26.75,2.41" style="fill: none; stroke: #473c5d; stroke-miterlimit: 10; stroke-width: 3px;"/>
      <path d="m445.05,566.91c-8.88.87-17.78,1.81-26.68,2.4" style="fill: none; stroke: #473c5d; stroke-miterlimit: 10; stroke-width: 3px;"/>
    </g>
    <g>
      <path d="m432.76,641.25c-.08-.86.58-1.63,1.48-1.71.9-.08,1.7.55,1.79,1.41s-.58,1.63-1.48,1.71c-.9.08-1.7-.55-1.79-1.41Z" style="fill: #fff;"/>
      <path d="m429.43,639.98c-1.8-.43-10.91-3.33-15.52-12.24-2.71-5.23-2.63-10.12-2.43-12.5" style="fill: none; stroke: #fff; stroke-linecap: round; stroke-miterlimit: 10; stroke-width: 3px;"/>
    </g>
    <g>
      <path d="m427.18,582.66l9.02-.87.71,7.51c.24,2.46-1.6,4.64-4.11,4.88h0c-2.51.24-4.73-1.56-4.95-4.01l-.67-7.51Z" style="fill: none; stroke: #473c5d; stroke-miterlimit: 10; stroke-width: 3px;"/>
      <path d="m432.8,594.18l.8,8.51.81,8.51c-1.31,1.52-3.18,2.17-4.57,1.65-2.11-.79-2.59-4.08-1.53-5.74,1.56-2.45,7.03-2.31,10.33.03.51.36,2.07,1.5,2.73,3.4,1.29,3.69-1.31,8.74-6.72,12.17" style="fill: none; stroke: #473c5d; stroke-linecap: round; stroke-miterlimit: 10; stroke-width: 3px;"/>
    </g>
  </g>
  <g>
    <path d="m534.33,614.38c.91-12.35,9.04-22.37,19.93-26.87l.32-5.43,26.98,1.39-.24,5.44c10.4,5.32,17.46,16.22,17.02,28.58-.31,8.56-4.24,16.23-10.4,21.68-1.54,1.36-3.21,2.6-5,3.65-1.79,1.03-3.69,1.9-5.68,2.59-3.98,1.38-8.32,2.03-12.81,1.79-8.97-.49-16.85-4.3-22.29-10.3-5.45-6.01-8.45-14-7.83-22.53Z" style="fill: #f0d109; stroke: #473c5d; stroke-miterlimit: 10; stroke-width: 3px;"/>
    <path d="m554.58,582.08l.95-16.32c.05-.8.73-1.41,1.53-1.37l23.81,1.24c.8.03,1.42.69,1.39,1.49l-.7,16.34-26.98-1.39Z" style="fill: #d1d3d4; stroke: #473c5d; stroke-miterlimit: 10; stroke-width: 3px;"/>
    <path d="m565.74,558.81l7.02.38c3.33.18,5.91,3.02,5.77,6.35l-19.13-1.02c.18-3.33,3.03-5.88,6.35-5.7Z" style="fill: #d1d3d4; stroke: #473c5d; stroke-miterlimit: 10; stroke-width: 3px;"/>
    <g>
      <line x1="581.56" y1="583.47" x2="581.56" y2="583.47" style="fill: none; stroke: #473c5d; stroke-miterlimit: 10; stroke-width: 3px;"/>
      <path d="m581.76,578.82c-8.98-.41-17.95-.93-26.91-1.38" style="fill: none; stroke: #473c5d; stroke-miterlimit: 10; stroke-width: 3px;"/>
      <path d="m581.96,574.17c-8.95-.39-17.9-.92-26.84-1.38" style="fill: none; stroke: #473c5d; stroke-miterlimit: 10; stroke-width: 3px;"/>
      <path d="m582.16,569.51c-8.93-.37-17.86-.92-26.77-1.37" style="fill: none; stroke: #473c5d; stroke-miterlimit: 10; stroke-width: 3px;"/>
    </g>
    <g>
      <path d="m558.96,641.3c.05-.86.83-1.53,1.73-1.48.9.04,1.6.78,1.55,1.65-.05.86-.83,1.53-1.73,1.48-.91-.04-1.6-.78-1.54-1.65Z" style="fill: #fff;"/>
      <path d="m555.87,639.57c-1.7-.76-10.25-4.67-13.44-14.13-1.87-5.55-1.06-10.37-.5-12.7" style="fill: none; stroke: #fff; stroke-linecap: round; stroke-miterlimit: 10; stroke-width: 3px;"/>
    </g>
    <g>
      <path d="m562.23,582.48l9.05.47-.37,7.53c-.12,2.46-2.26,4.36-4.78,4.23-2.52-.13-4.44-2.23-4.31-4.7l.41-7.53Z" style="fill: none; stroke: #473c5d; stroke-miterlimit: 10; stroke-width: 3px;"/>
      <path d="m566.13,594.71l-.46,8.54-.46,8.54c-1.52,1.31-3.47,1.69-4.77.97-1.96-1.09-1.95-4.41-.65-5.91,1.9-2.2,7.29-1.27,10.21,1.53.45.43,1.82,1.78,2.2,3.76.72,3.83-2.62,8.45-8.49,11.07" style="fill: none; stroke: #473c5d; stroke-linecap: round; stroke-miterlimit: 10; stroke-width: 3px;"/>
    </g>
  </g>
  <g>
    <path d="m670.41,613.49c-2.54-12.11,2.56-24.07,11.91-31.1l-1.16-5.32,6.61-1.38,6.59-1.5,13.17-3,1.24,5.3c5.75,1.23,11.06,4.09,15.3,8.04,4.24,3.93,7.43,9.08,8.92,15.09,2.07,8.31.43,16.71-3.96,23.58-4.39,6.83-11.55,11.96-20.34,13.91-4.39.97-8.76,1.05-12.9.36-4.14-.69-8.07-2.27-11.54-4.41-6.95-4.32-12.08-11.18-13.85-19.55Z" style="fill: #f0d109; stroke: #473c5d; stroke-miterlimit: 10; stroke-width: 3px;"/>
    <path d="m681.16,577.07l-3.46-15.99c-.17-.78.33-1.55,1.12-1.71l5.83-1.22,5.82-1.32,11.62-2.66c.78-.18,1.56.31,1.74,1.09l3.7,15.93-13.17,3-6.59,1.5-6.61,1.38Z" style="fill: #d1d3d4; stroke: #473c5d; stroke-miterlimit: 10; stroke-width: 3px;"/>
    <path d="m685.74,551.74l6.85-1.57c3.25-.75,6.48,1.28,7.23,4.53l-9.34,2.14-4.67,1.07-4.69.99c-.71-3.27,1.37-6.43,4.62-7.16Z" style="fill: #d1d3d4; stroke: #473c5d; stroke-miterlimit: 10; stroke-width: 3px;"/>
    <g>
      <line x1="707.53" y1="571.19" x2="707.54" y2="571.19" style="fill: none; stroke: #473c5d; stroke-miterlimit: 10; stroke-width: 3px;"/>
      <polyline points="706.48 566.65 693.35 569.65 686.77 571.15 680.18 572.52" style="fill: none; stroke: #473c5d; stroke-miterlimit: 10; stroke-width: 3px;"/>
      <polyline points="705.43 562.12 692.33 565.12 685.77 566.61 679.19 567.97" style="fill: none; stroke: #473c5d; stroke-miterlimit: 10; stroke-width: 3px;"/>
      <path d="m704.38,557.59l-13.07,2.99c-2.18.49-4.36,1.02-6.54,1.48l-6.56,1.37" style="fill: none; stroke: #473c5d; stroke-miterlimit: 10; stroke-width: 3px;"/>
    </g>
    <g>
      <path d="m701.73,632.88c-.19-.84.37-1.69,1.25-1.89s1.76.32,1.95,1.17c.2.84-.36,1.69-1.25,1.89-.89.2-1.76-.32-1.95-1.17Z" style="fill: #fff;"/>
      <path d="m698.26,632.05c-.93-.15-3.73-.54-7.03-2.03-3.3-1.49-7.08-3.97-9.94-8.08-3.36-4.83-3.91-9.7-4.01-12.08" style="fill: none; stroke: #fff; stroke-linecap: round; stroke-miterlimit: 10; stroke-width: 3px;"/>
    </g>
    <g>
      <path d="m688.67,575.49l8.84-2.02,1.67,7.35c.55,2.41-.99,4.81-3.45,5.37-2.46.56-4.89-.94-5.43-3.35l-1.64-7.36Z" style="fill: none; stroke: #473c5d; stroke-miterlimit: 10; stroke-width: 3px;"/>
      <path d="m695.73,586.19l1.89,8.34,1.9,8.33c-1.1,1.67-2.88,2.56-4.33,2.22-2.19-.51-3.09-3.71-2.26-5.5,1.23-2.63,6.68-3.19,10.26-1.29.55.29,2.24,1.22,3.15,3.03,1.75,3.49-.18,8.84-5.11,12.93" style="fill: none; stroke: #473c5d; stroke-linecap: round; stroke-miterlimit: 10; stroke-width: 3px;"/>
    </g>
  </g>
  <g>
    <path d="m799.45,591.78c-1.23-12.32,5.04-23.74,15.06-29.84l-.61-5.4c8.94-1.06,17.87-2.23,26.83-3.33l.7,5.39c5.62,1.84,10.6,5.06,14.41,9.4,3.81,4.34,6.45,9.79,7.29,15.92,1.17,8.48-1.39,16.71-6.51,23.14-5.14,6.33-12.85,10.82-21.78,11.94-4.46.57-8.8.23-12.84-.94-4.04-1.14-7.75-3.02-10.95-5.49-6.4-4.95-10.74-12.27-11.59-20.78Z" style="fill: #f0d109; stroke: #473c5d; stroke-miterlimit: 10; stroke-width: 3px;"/>
    <path d="m813.89,556.54l-1.86-16.23c-.09-.8.48-1.5,1.28-1.6l23.67-2.96c.8-.1,1.53.46,1.63,1.25l2.11,16.2c-8.95,1.11-17.88,2.28-26.83,3.33Z" style="fill: #d1d3d4; stroke: #473c5d; stroke-miterlimit: 10; stroke-width: 3px;"/>
    <path d="m820.91,531.67l6.98-.87c3.31-.41,6.34,1.93,6.76,5.24l-19.02,2.38c-.39-3.31,1.98-6.33,5.28-6.74Z" style="fill: #d1d3d4; stroke: #473c5d; stroke-miterlimit: 10; stroke-width: 3px;"/>
    <g>
      <line x1="840.72" y1="553.21" x2="840.72" y2="553.21" style="fill: none; stroke: #473c5d; stroke-miterlimit: 10; stroke-width: 3px;"/>
      <line x1="840.12" y1="548.6" x2="813.36" y2="551.92" style="fill: none; stroke: #473c5d; stroke-miterlimit: 10; stroke-width: 3px;"/>
      <line x1="839.52" y1="543.98" x2="812.83" y2="547.3" style="fill: none; stroke: #473c5d; stroke-miterlimit: 10; stroke-width: 3px;"/>
      <line x1="838.92" y1="539.37" x2="812.31" y2="542.68" style="fill: none; stroke: #473c5d; stroke-miterlimit: 10; stroke-width: 3px;"/>
    </g>
    <g>
      <path d="m828.39,614.13c-.1-.86.55-1.65,1.45-1.77.9-.11,1.71.49,1.81,1.35.1.86-.55,1.65-1.45,1.77s-1.71-.49-1.81-1.35Z" style="fill: #fff;"/>
      <path d="m825.05,612.96c-1.81-.46-10.95-3-15.72-11.74-2.8-5.13-2.83-10.03-2.68-12.42" style="fill: none; stroke: #fff; stroke-linecap: round; stroke-miterlimit: 10; stroke-width: 3px;"/>
    </g>
    <g>
      <path d="m821.51,555.62l9-1.13.92,7.49c.3,2.45-1.48,4.69-3.98,5.01-2.5.32-4.76-1.42-5.05-3.87l-.88-7.49Z" style="fill: none; stroke: #473c5d; stroke-miterlimit: 10; stroke-width: 3px;"/>
      <path d="m827.44,566.99l1.02,8.49,1.01,8.49c-1.27,1.56-3.13,2.28-4.53,1.8-2.12-.72-2.68-4.01-1.66-5.71,1.5-2.51,6.97-2.53,10.32-.29.52.35,2.1,1.43,2.81,3.32,1.37,3.65-1.12,8.79-6.46,12.4" style="fill: none; stroke: #473c5d; stroke-linecap: round; stroke-miterlimit: 10; stroke-width: 3px;"/>
    </g>
  </g>
  <g>
    <path d="m933.38,569.7c-2.1-5.83-2.28-11.87-.91-17.47,1.37-5.64,4.28-10.87,8.42-15.04l-1.88-5.1,12.7-4.65c4.23-1.56,8.43-3.21,12.64-4.81l1.96,5.07c5.87.42,11.52,2.48,16.27,5.82,4.75,3.32,8.62,7.98,10.92,13.73,3.19,7.95,2.72,16.5-.69,23.89-3.42,7.35-9.81,13.47-18.24,16.64-4.2,1.6-8.55,2.22-12.76,2.07-4.21-.15-8.3-1.09-12.03-2.73-3.73-1.64-7.1-3.96-9.91-6.89-2.81-2.96-5.04-6.5-6.49-10.53Z" style="fill: #f0d109; stroke: #473c5d; stroke-miterlimit: 10; stroke-width: 3px;"/>
    <path d="m939.02,532.08l-5.63-15.34c-.27-.75.11-1.58.87-1.86,7.47-2.75,14.95-5.44,22.36-8.34.75-.29,1.59.08,1.87.83l5.86,15.26c-4.21,1.6-8.41,3.24-12.64,4.81l-12.7,4.65Z" style="fill: #d1d3d4; stroke: #473c5d; stroke-miterlimit: 10; stroke-width: 3px;"/>
    <path d="m940.05,506.32l6.6-2.42c3.12-1.18,6.6.36,7.79,3.48h0c-5.96,2.33-11.97,4.47-17.98,6.69-1.15-3.13.46-6.6,3.59-7.75Z" style="fill: #d1d3d4; stroke: #473c5d; stroke-miterlimit: 10; stroke-width: 3px;"/>
    <g>
      <line x1="964.36" y1="522.63" x2="964.36" y2="522.63" style="fill: none; stroke: #473c5d; stroke-miterlimit: 10; stroke-width: 3px;"/>
      <path d="m962.69,518.29c-4.2,1.59-8.39,3.24-12.61,4.79l-12.67,4.64" style="fill: none; stroke: #473c5d; stroke-miterlimit: 10; stroke-width: 3px;"/>
      <path d="m961.02,513.94c-4.19,1.59-8.36,3.25-12.57,4.78l-12.63,4.63" style="fill: none; stroke: #473c5d; stroke-miterlimit: 10; stroke-width: 3px;"/>
      <path d="m959.35,509.6c-4.18,1.58-8.34,3.25-12.54,4.76l-12.6,4.62" style="fill: none; stroke: #473c5d; stroke-miterlimit: 10; stroke-width: 3px;"/>
    </g>
    <g>
      <path d="m967.09,584.56c-.31-.81.13-1.72.99-2.03.85-.32,1.79.07,2.1.88.31.81-.13,1.72-.98,2.05-.85.31-1.79-.1-2.1-.9Z" style="fill: #fff;"/>
      <path d="m963.53,584.19c-1.87-.02-11.41-.32-18.2-7.65-3.98-4.3-5.2-9.04-5.63-11.4" style="fill: none; stroke: #fff; stroke-linecap: round; stroke-miterlimit: 10; stroke-width: 3px;"/>
    </g>
    <g>
      <path d="m946.24,529.44c2.84-1.05,5.68-2.06,8.51-3.14l2.67,7.05c.87,2.3-.32,4.93-2.69,5.78-2.37.86-4.99-.31-5.85-2.62l-2.64-7.07Z" style="fill: none; stroke: #473c5d; stroke-miterlimit: 10; stroke-width: 3px;"/>
      <path d="m954.73,539.14l3.02,8.01,3.03,8c-.87,1.8-2.51,2.9-4,2.75-2.25-.23-3.58-3.28-3-5.16.86-2.76,6.21-3.99,10.01-2.64.59.21,2.39.89,3.54,2.55,2.22,3.21,1.04,8.78-3.28,13.53" style="fill: none; stroke: #473c5d; stroke-linecap: round; stroke-miterlimit: 10; stroke-width: 3px;"/>
    </g>
  </g>
  <path d="m7.02,489.02c79.87,23.71,161.42,41.88,243.88,53.86,41.23,6.01,82.67,10.5,124.23,13.5l15.58,1.15,15.6.83,15.6.82c2.6.12,5.2.3,7.8.38l7.81.24c10.41.29,20.82.69,31.23.9l31.25.26c83.32-.14,166.64-5.99,249.1-18.06,41.22-6.04,82.24-13.51,122.91-22.54,40.68-9.01,81.02-19.5,120.96-31.34" style="fill: none; stroke: #473c5d; stroke-miterlimit: 10; stroke-width: 12px;"/>
</svg>