<?xml version="1.0" encoding="UTF-8"?>
<svg id="Layer_2" data-name="Layer 2" xmlns="http://www.w3.org/2000/svg" viewBox="0 0 531.32 630.94">
  <g id="Layer_2-2" data-name="Layer 2">
    <g id="Layer_3" data-name="Layer 3">
      <g>
        <path d="m505.82,224.3v392.21c0,5.21-4.22,9.43-9.42,9.43H34.92c-5.2,0-9.42-4.22-9.42-9.43V224.3h480.32Z" style="fill: #f53b40; stroke: #473c5d; stroke-miterlimit: 10; stroke-width: 10px;"/>
        <rect x="207.09" y="224.3" width="117.14" height="401.64" style="fill: #f5c838; stroke: #473c5d; stroke-miterlimit: 10; stroke-width: 10px;"/>
      </g>
      <g>
        <g>
          <path d="m14.84,129.22h192.25v95.08H14.84c-5.43,0-9.84-4.4-9.84-9.83v-75.41c0-5.44,4.41-9.84,9.84-9.84Z" style="fill: #f53b40; stroke: #473c5d; stroke-miterlimit: 10; stroke-width: 10px;"/>
          <path d="m526.32,139.06v75.41c0,5.43-4.41,9.83-9.84,9.83h-192.25v-95.08h192.25c5.43,0,9.84,4.4,9.84,9.84Z" style="fill: #f53b40; stroke: #473c5d; stroke-miterlimit: 10; stroke-width: 10px;"/>
          <rect x="192.95" y="129.22" width="145.43" height="95.08" style="fill: #f5c838; stroke: #473c5d; stroke-miterlimit: 10; stroke-width: 10px;"/>
        </g>
        <path d="m250.39,65.08h30.54c14.83,0,26.87,12.04,26.87,26.87v37.26h-84.28v-37.26c0-14.83,12.04-26.87,26.87-26.87Z" style="fill: #f5c838; stroke: #473c5d; stroke-miterlimit: 10; stroke-width: 10px;"/>
        <path d="m298.79,71.89c2.95-9.89,10.42-29.76,29.26-45.38,29.28-24.29,75.5-29.59,108.64-7.71,21.97,14.5,48.25,47.58,36.64,77.79-8.48,22.07-32.62,30.69-38.57,32.64h-126.96c1.9-9.68,3.55-26.16-2.89-44.21-1.78-4.99-3.92-9.36-6.11-13.12Z" style="fill: #f5c838; stroke: #473c5d; stroke-miterlimit: 10; stroke-width: 10px;"/>
        <path d="m230.61,71.89c-2.95-9.89-10.42-29.76-29.26-45.38C172.07,2.22,125.85-3.08,92.71,18.8c-21.97,14.5-48.25,47.58-36.64,77.79,8.48,22.07,32.62,30.69,38.57,32.64h126.96c-1.9-9.68-3.55-26.16,2.89-44.21,1.78-4.99,3.92-9.36,6.11-13.12Z" style="fill: #f5c838; stroke: #473c5d; stroke-miterlimit: 10; stroke-width: 10px;"/>
        <path d="m306.84,91.61c0-17.59,42.7-31.82,95.46-31.82" style="fill: none; stroke: #473c5d; stroke-linecap: round; stroke-miterlimit: 10; stroke-width: 5px;"/>
        <path d="m307.95,103.22c3.58-13.11,34.12-16.16,68.28-6.82" style="fill: none; stroke: #473c5d; stroke-linecap: round; stroke-miterlimit: 10; stroke-width: 5px;"/>
        <path d="m221.54,89.49c0-17.59-42.7-31.82-95.46-31.82" style="fill: none; stroke: #473c5d; stroke-linecap: round; stroke-miterlimit: 10; stroke-width: 5px;"/>
        <path d="m220.42,101.09c-3.58-13.11-34.12-16.16-68.28-6.82" style="fill: none; stroke: #473c5d; stroke-linecap: round; stroke-miterlimit: 10; stroke-width: 5px;"/>
      </g>
    </g>
  </g>
</svg>