<?xml version="1.0" encoding="UTF-8"?>
<svg id="Layer_2" data-name="Layer 2" xmlns="http://www.w3.org/2000/svg" viewBox="0 0 932.03 219.11">
  <g id="Layer_1-2" data-name="Layer 1">
    <g>
      <path d="m.87,1.23c33.66,23.79,69.35,44.84,106.42,63.19,37.06,18.36,75.52,33.91,114.9,46.5,39.35,12.67,79.69,22.1,120.47,28.59,2.54.46,5.1.76,7.66,1.14l7.67,1.08,7.67,1.07,7.69.87,7.69.88c2.57.28,5.12.62,7.7.81l15.43,1.34,3.86.33,3.86.23,7.73.46c5.15.3,10.3.67,15.46.77l15.48.49c5.16.09,10.33.05,15.49.09,82.62.05,165.13-12.88,243.87-38.07,19.69-6.27,39.15-13.3,58.31-21.08,19.16-7.77,38.05-16.24,56.56-25.44,18.52-9.2,36.7-19.06,54.47-29.6,17.75-10.57,35.08-21.75,51.93-33.66" style="fill: none; stroke: #fff; stroke-miterlimit: 10; stroke-width: 3px;"/>
      <path d="m18.05,97.37c2.08-12.65,4.31-25.17,6.74-37.65,2.45-12.51,5.02-24.87,7.84-37.23,14.34,9.12,29.01,17.76,43.94,25.95-9.46,8.4-19.05,16.65-28.82,24.84-9.75,8.15-19.64,16.16-29.7,24.1Z" style="fill: #ffc100;"/>
      <path d="m117.02,69.15c15.37,7.34,30.94,14.3,46.75,20.64-8.41,9.42-17,18.79-25.74,28.05-8.72,9.2-17.61,18.34-26.66,27.39.57-12.74,1.36-25.54,2.29-38.18.92-12.63,2.07-25.32,3.37-37.9Z" style="fill: #4ccd99;"/>
      <path d="m206.36,105.68c8.03,2.83,16.17,5.34,24.28,7.92,4.06,1.27,8.16,2.41,12.24,3.63l6.13,1.8c2.05.59,4.11,1.11,6.16,1.67-3.63,5.19-7.31,10.39-11.01,15.53-3.7,5.12-7.45,10.23-11.25,15.32-7.58,10.17-15.37,20.36-23.29,30.37-1.82-25.58-2.94-50.87-3.25-76.24Z" style="fill: #e2dfd0;"/>
      <path d="m299.28,131.45l6.23,1.36,6.26,1.21,12.53,2.42,12.58,2.11c4.19.7,8.38,1.44,12.6,1.98-5.96,11.24-12.08,22.26-18.4,33.28-6.31,11.02-12.82,22.03-19.51,32.96-2.43-12.6-4.67-25.17-6.73-37.7-1.03-6.26-2.01-12.52-2.94-18.77-.93-6.29-1.8-12.59-2.63-18.86Z" style="fill: #fb6d48;"/>
      <path d="m394.56,145.87l12.71,1.11,12.73.77,6.37.38,3.18.19,3.19.1,12.75.4c-4.56,11.77-9.3,23.54-14.24,35.31l-3.74,8.82-3.81,8.72c-2.56,5.82-5.17,11.63-7.83,17.44-3.94-12.17-7.69-24.31-11.24-36.49-3.55-12.27-6.91-24.52-10.07-36.75Z" style="fill: #f3ca52;"/>
      <path d="m490.89,148.71c2.13-.06,4.25-.08,6.38-.18l6.37-.33,12.74-.65c4.24-.26,8.48-.64,12.72-.96l6.36-.49,3.18-.25,3.17-.33-2.36,9.23-2.44,9.15c-1.65,6.1-3.35,12.21-5.09,18.32-3.49,12.2-7.17,24.5-11.05,36.67-5.38-11.65-10.56-23.31-15.56-34.99-2.5-5.84-4.95-11.68-7.35-17.52-2.4-5.85-4.76-11.79-7.07-17.68Z" style="fill: #68d2e8;"/>
      <path d="m586.84,139.91l12.6-1.98,12.55-2.28,6.28-1.14,6.25-1.29,12.49-2.58c-1.61,12.51-3.41,25.04-5.4,37.61-.99,6.29-2.03,12.58-3.12,18.89-1.09,6.27-2.24,12.52-3.43,18.79-6.74-10.88-13.29-21.81-19.65-32.76-6.38-11.03-12.57-22.15-18.58-33.26Z" style="fill: #e2dfd0;"/>
      <path d="m681.07,119.61c8.22-2.21,16.34-4.75,24.49-7.22,4.06-1.27,8.1-2.63,12.15-3.94l6.06-2,6.03-2.11c-.05,6.33-.14,12.67-.28,19.03-.14,6.34-.35,12.65-.59,19.01-.49,12.68-1.13,25.47-1.99,38.22-15.99-20.05-31.24-40.26-45.87-60.99Z" style="fill: #f3ca52;"/>
      <path d="m772.29,88.24c15.77-6.44,31.3-13.46,46.63-20.9,2.76,25.18,4.77,50.49,6.08,76.05-9.11-9.01-18.05-18.09-26.82-27.25-8.79-9.21-17.43-18.53-25.89-27.9Z" style="fill: #fb6d48;"/>
      <path d="m918.05,94.96c-20.18-15.68-39.8-31.91-58.8-48.58,14.88-8.28,29.48-17.02,43.79-26.2,2.86,12.31,5.56,24.73,8.05,37.17,2.51,12.48,4.82,25,6.96,37.61Z" style="fill: #4ccd99;"/>
    </g>
  </g>
</svg>